# xmcd CD database file generated by Grip 2.6
# 
# Track frame offsets:
#       180
#       15291
#       29168
#       43409
#       62541
#       80165
#       96359
#       105800
#       117654
#       136116
#       153322
#       170460
#       184416
# 
# Disc length: 2666 seconds
# 
# Revision: 3
# Processed by: cddbd v1.4b41PL1 Copyright (c) Steve Scherf et al.
# Submitted via: Grip 2.6
# 
DISCID=ac0a680d
DTITLE=Bay Area Blues Society - West Coast Blues
DYEAR=1900
DGENRE=
TTITLE0=Whole Lot'a Lovin
TTITLE1=Honest I Do
TTITLE2=The Thrill Is Gone
TTITLE3=Stand By Me
TTITLE4="Oldies Medly"
TTITLE5=Hidaway
TTITLE6=Killin Floor
TTITLE7="Thriller"
TTITLE8=Dog'n Me Around
TTITLE9=Lovelight
TTITLE10=Muddy Water
TTITLE11=Fever
TTITLE12=Yonder Wall
EXTD=
EXTT0=
EXTT1=
EXTT2=
EXTT3=
EXTT4=
EXTT5=
EXTT6=
EXTT7=
EXTT8=
EXTT9=
EXTT10=
EXTT11=
EXTT12=
PLAYORDER=
